<?xml version="1.0" encoding="utf-8"?>
<!-- Generator: Adobe Illustrator 24.2.1, SVG Export Plug-In . SVG Version: 6.00 Build 0)  -->
<svg version="1.1" id="Layer_1" xmlns="http://www.w3.org/2000/svg" xmlns:xlink="http://www.w3.org/1999/xlink" x="0px" y="0px"
	 viewBox="0 0 483.56 473.96" style="enable-background:new 0 0 483.56 473.96;" xml:space="preserve">
<style type="text/css">
	.st0{fill:#FFFFFF;}
</style>
<g>
	<path class="st0" d="M230.56,370.19c0-2.02,0-3.26,0-4.51c0-39.39-0.04-78.78,0.07-118.16c0.01-2.86-0.83-4.39-3.31-5.81
		c-34.29-19.67-68.52-39.46-102.77-59.22c-3.6-2.08-3.62-2.08-3.62,1.96c0,39.64,0.03,79.28-0.07,118.91
		c-0.01,2.76,0.91,4.17,3.23,5.5c26.42,15.16,52.79,30.42,79.17,45.65C212.17,359.64,221.09,364.74,230.56,370.19z M362.12,180.92
		c-0.52,0.25-1.07,0.46-1.58,0.75c-35.11,20.25-70.2,40.54-105.36,60.7c-2.11,1.21-2.16,2.64-2.16,4.55
		c0.02,39.89,0.01,79.77,0.04,119.66c0,1.02-0.51,2.2,0.57,3.2c0.44-0.21,0.89-0.39,1.3-0.63c35.1-20.26,70.19-40.55,105.34-60.72
		c2.18-1.25,2.41-2.73,2.41-4.84c-0.04-39.76-0.02-79.52-0.05-119.29C362.64,183.24,363.03,182.08,362.12,180.92z M351.26,161.02
		c-0.91-0.64-1.29-0.95-1.71-1.19c-35.1-20.28-70.22-40.53-105.29-60.87c-1.94-1.13-3.27-0.87-5.07,0.17
		c-34.65,20.07-69.34,40.08-104.01,60.1c-0.83,0.48-1.87,0.71-2.38,1.98c0.38,0.23,0.76,0.46,1.15,0.68
		c35.21,20.34,70.44,40.66,105.6,61.08c2.04,1.18,3.36,0.63,5.07-0.36c18.29-10.61,36.6-21.16,54.91-31.73
		C316.64,181,333.74,171.12,351.26,161.02z M302.59,392.87c-0.39-0.72-0.74-1.38-1.11-2.02c-2.73-4.74-5.6-9.4-8.14-14.24
		c-1.23-2.35-2.19-2.42-4.41-1.11c-14.46,8.5-29.06,16.78-43.53,25.27c-2.49,1.46-4.34,1.68-6.98,0.12
		c-14.55-8.6-29.26-16.93-43.85-25.45c-1.95-1.14-2.96-1.32-4.16,0.97c-2.6,4.95-5.44,9.78-8.38,14.53c-1.19,1.92-1.01,2.79,1,3.94
		c18.99,10.86,37.92,21.81,56.84,32.79c1.32,0.76,2.33,0.96,3.71,0.16c19.13-11.11,38.28-22.18,57.42-33.26
		C301.69,394.15,302.68,393.97,302.59,392.87z M407.76,176.51c0-10.72-0.01-21.43,0.01-32.15c0-1.63,0.04-2.97-1.8-4.02
		c-19.2-10.99-38.34-22.07-57.46-33.2c-1.6-0.93-2.3-0.62-3.14,0.88c-2.78,4.99-5.51,10.04-8.61,14.83
		c-1.52,2.35-0.87,3.16,1.24,4.36c14.79,8.43,29.49,17.03,44.3,25.44c2.23,1.27,3.01,2.69,2.99,5.26c-0.12,16.94,0,33.89-0.13,50.84
		c-0.02,2.67,0.71,3.35,3.31,3.25c5.47-0.21,10.97-0.18,16.44-0.01c2.35,0.07,2.92-0.69,2.89-2.96
		C407.7,198.19,407.76,187.35,407.76,176.51z M407.76,297.82c0-10.84-0.07-21.68,0.05-32.52c0.03-2.33-0.66-2.98-2.94-2.91
		c-5.48,0.15-10.97,0.2-16.44-0.02c-2.66-0.11-3.28,0.7-3.26,3.3c0.12,16.94,0,33.89,0.13,50.84c0.02,2.6-0.84,3.97-3.04,5.23
		c-14.91,8.48-29.72,17.14-44.62,25.63c-1.96,1.12-2.22,1.9-1.01,3.85c2.96,4.74,5.76,9.59,8.37,14.54c1.18,2.23,2.1,2.27,4.17,1.06
		c18.57-10.83,37.19-21.58,55.88-32.22c2.17-1.24,2.79-2.61,2.76-4.99C407.69,319,407.76,308.41,407.76,297.82z M75.84,176.42
		c0,10.59,0.13,21.18-0.08,31.77c-0.07,3.21,0.94,3.96,3.96,3.81c5.1-0.25,10.22-0.27,15.32,0.01c2.96,0.16,3.41-0.89,3.39-3.55
		c-0.12-16.69,0.03-33.39-0.14-50.08c-0.03-3.06,1.02-4.56,3.59-6.02c14.6-8.26,29.03-16.81,43.65-25.04
		c2.58-1.45,2.53-2.51,1.17-4.7c-2.82-4.53-5.5-9.17-8.03-13.87c-1.09-2.02-1.87-2.55-4.11-1.24c-18.67,10.9-37.41,21.69-56.19,32.4
		c-2.06,1.18-2.58,2.53-2.55,4.74C75.9,155.25,75.84,165.84,75.84,176.42z M75.84,297.75c0,10.71,0.05,21.43-0.04,32.14
		c-0.02,2.06,0.44,3.36,2.38,4.46c18.88,10.78,37.73,21.63,56.5,32.6c2.16,1.26,2.86,0.66,3.87-1.18c2.56-4.69,5.2-9.34,8.02-13.87
		c1.42-2.29,1.53-3.41-1.21-4.94c-14.42-8.08-28.63-16.51-43.02-24.63c-2.92-1.65-4.13-3.4-4.08-6.89
		c0.22-16.44,0.04-32.89,0.16-49.33c0.02-2.76-0.45-3.93-3.57-3.75c-4.97,0.3-9.97,0.27-14.94,0.01c-3.15-0.16-4.26,0.52-4.17,3.99
		C76.02,276.82,75.84,287.29,75.84,297.75z"/>
	<path class="st0" d="M242.55,45.63c7.63,5.33,15.95,9.49,23.95,14.2c11.15,6.56,22.33,13.06,33.63,19.36
		c2.57,1.43,2.62,2.47,1.17,4.73c-2.74,4.3-5.37,8.69-7.65,13.24c-1.36,2.71-2.38,3.16-5.14,1.53
		c-14.56-8.61-29.29-16.93-43.87-25.51c-2.14-1.26-3.57-1.21-5.68,0.03c-14.59,8.56-29.32,16.88-43.87,25.5
		c-2.8,1.66-3.79,1.13-5.14-1.54c-2.3-4.54-4.9-8.95-7.65-13.24c-1.48-2.3-1.32-3.3,1.19-4.72c18.28-10.38,36.46-20.93,54.64-31.47
		c1.02-0.59,2.36-0.83,2.91-2.11C241.55,45.63,242.05,45.63,242.55,45.63z"/>
	<path class="st0" d="M230.56,370.19c-9.48-5.44-18.39-10.55-27.29-15.68c-26.38-15.23-52.75-30.49-79.17-45.65
		c-2.32-1.33-3.24-2.73-3.23-5.5c0.1-39.64,0.07-79.28,0.07-118.91c0-4.04,0.01-4.04,3.62-1.96
		c34.25,19.76,68.47,39.54,102.77,59.22c2.48,1.42,3.32,2.94,3.31,5.81c-0.11,39.39-0.07,78.78-0.07,118.16
		C230.56,366.92,230.56,368.17,230.56,370.19z"/>
	<path class="st0" d="M362.12,180.92c0.91,1.16,0.52,2.32,0.52,3.38c0.02,39.76,0.01,79.52,0.05,119.29c0,2.11-0.23,3.59-2.41,4.84
		c-35.15,20.17-70.24,40.46-105.34,60.72c-0.41,0.24-0.86,0.42-1.3,0.63c-1.08-1-0.57-2.18-0.57-3.2
		c-0.03-39.89-0.02-79.77-0.04-119.66c0-1.91,0.05-3.34,2.16-4.55c35.16-20.16,70.25-40.45,105.36-60.7
		C361.05,181.38,361.6,181.17,362.12,180.92z"/>
	<path class="st0" d="M351.26,161.02c-17.51,10.11-34.62,19.98-51.72,29.85c-18.31,10.57-36.62,21.13-54.91,31.73
		c-1.7,0.99-3.03,1.54-5.07,0.36c-35.17-20.42-70.39-40.74-105.6-61.08c-0.38-0.22-0.76-0.45-1.15-0.68
		c0.51-1.26,1.55-1.5,2.38-1.98c34.67-20.03,69.36-40.03,104.01-60.1c1.8-1.04,3.13-1.3,5.07-0.17
		c35.07,20.34,70.18,40.59,105.29,60.87C349.97,160.07,350.34,160.38,351.26,161.02z"/>
	<path class="st0" d="M302.59,392.87c0.1,1.11-0.89,1.28-1.59,1.68c-19.14,11.08-38.3,22.15-57.42,33.26
		c-1.38,0.8-2.39,0.61-3.71-0.16c-18.92-10.98-37.85-21.93-56.84-32.79c-2.01-1.15-2.19-2.02-1-3.94c2.94-4.76,5.77-9.59,8.38-14.53
		c1.2-2.29,2.21-2.1,4.16-0.97c14.6,8.52,29.3,16.85,43.85,25.45c2.63,1.56,4.49,1.34,6.98-0.12c14.47-8.49,29.07-16.76,43.53-25.27
		c2.22-1.31,3.18-1.23,4.41,1.11c2.54,4.84,5.41,9.5,8.14,14.24C301.85,391.49,302.19,392.15,302.59,392.87z"/>
	<path class="st0" d="M407.76,176.51c0,10.84-0.06,21.68,0.05,32.52c0.02,2.27-0.55,3.03-2.89,2.96c-5.48-0.17-10.97-0.2-16.44,0.01
		c-2.59,0.1-3.33-0.58-3.31-3.25c0.13-16.94,0.01-33.89,0.13-50.84c0.02-2.56-0.76-3.99-2.99-5.26c-14.8-8.41-29.5-17.01-44.3-25.44
		c-2.1-1.2-2.75-2.01-1.24-4.36c3.1-4.8,5.82-9.84,8.61-14.83c0.84-1.51,1.54-1.81,3.14-0.88c19.12,11.13,38.26,22.21,57.46,33.2
		c1.84,1.05,1.8,2.38,1.8,4.02C407.75,155.07,407.76,165.79,407.76,176.51z"/>
	<path class="st0" d="M407.76,297.82c0,10.59-0.07,21.18,0.06,31.77c0.03,2.38-0.59,3.75-2.76,4.99
		c-18.68,10.64-37.3,21.39-55.88,32.22c-2.08,1.21-3,1.17-4.17-1.06c-2.61-4.94-5.41-9.8-8.37-14.54c-1.22-1.95-0.95-2.74,1.01-3.85
		c14.9-8.49,29.71-17.14,44.62-25.63c2.2-1.25,3.06-2.63,3.04-5.23c-0.13-16.94-0.01-33.89-0.13-50.84c-0.02-2.59,0.6-3.4,3.26-3.3
		c5.47,0.22,10.97,0.17,16.44,0.02c2.28-0.06,2.97,0.58,2.94,2.91C407.69,276.14,407.76,286.98,407.76,297.82z"/>
	<path class="st0" d="M75.84,176.42c0-10.59,0.06-21.18-0.05-31.77c-0.02-2.22,0.49-3.57,2.55-4.74
		c18.79-10.71,37.52-21.49,56.19-32.4c2.25-1.31,3.03-0.78,4.11,1.24c2.54,4.7,5.21,9.33,8.03,13.87c1.37,2.2,1.41,3.25-1.17,4.7
		c-14.61,8.23-29.05,16.78-43.65,25.04c-2.58,1.46-3.63,2.96-3.59,6.02c0.17,16.69,0.02,33.39,0.14,50.08
		c0.02,2.66-0.43,3.71-3.39,3.55c-5.09-0.28-10.22-0.26-15.32-0.01c-3.01,0.15-4.02-0.61-3.96-3.81
		C75.98,197.61,75.84,187.01,75.84,176.42z"/>
	<path class="st0" d="M75.84,297.75c0-10.46,0.18-20.93-0.1-31.39c-0.09-3.48,1.02-4.16,4.17-3.99c4.97,0.26,9.98,0.29,14.94-0.01
		c3.11-0.19,3.59,0.99,3.57,3.75c-0.12,16.44,0.06,32.89-0.16,49.33c-0.05,3.5,1.16,5.25,4.08,6.89
		c14.39,8.12,28.61,16.55,43.02,24.63c2.74,1.54,2.63,2.65,1.21,4.94c-2.82,4.53-5.46,9.19-8.02,13.87
		c-1.01,1.84-1.71,2.44-3.87,1.18c-18.78-10.97-37.62-21.82-56.5-32.6c-1.94-1.11-2.4-2.4-2.38-4.46
		C75.89,319.18,75.84,308.47,75.84,297.75z"/>
</g>
</svg>
